HIERARCHY
ROOT Hips
{
	OFFSET 0.00000 0.00000 0.00000
	CHANNELS 6 Xposition Yposition Zposition Yrotation Zrotation Xrotation 
	JOINT Lumbar
	{
		OFFSET 0 0 0
		CHANNELS 3 Zrotation Xrotation Yrotation
		JOINT Neck
		{
			OFFSET 0.00 0.2701 0.00
			CHANNELS 3 Zrotation Xrotation Yrotation
			End Site
			{
				OFFSET 0.00 0.1379 0.00
			}
		}
		JOINT RightShoulder
		{
			OFFSET 0.0119 0.2289 0.1181
			CHANNELS 3 Zrotation Xrotation Yrotation
			JOINT RightElbow
			{
				OFFSET 0.00 -0.1475 0.00
				CHANNELS 2 Zrotation Yrotation
				JOINT RightWrist
				{
					OFFSET 0.00 -0.1605 0.00
					CHANNELS 2 Zrotation Xrotation
					End Site
					{
						OFFSET 0.0040 -0.1068 0.0006
					}
				}
			}
		}
		JOINT LeftShoulder
		{
			OFFSET 0.0119 0.2289 -0.1181
			CHANNELS 3 Zrotation Xrotation Yrotation
			JOINT LeftElbow
			{
				OFFSET 0.00 -0.1475 0.00
				CHANNELS 2 Zrotation Yrotation
				JOINT LeftWrist
				{
					OFFSET 0.00 -0.1605 0.00
					CHANNELS 2 Zrotation Xrotation
					End Site
					{
						OFFSET 0.0040 -0.1068 -0.0006
					}
				}
			}
		}
	}
	JOINT RightHip
	{
		OFFSET 0.0316 -0.0424 0.0458
		CHANNELS 3 Zrotation Xrotation Yrotation
		JOINT RightKnee
		{
			OFFSET 0.00 -0.2438 0.00
			CHANNELS 1 Zrotation
			JOINT RightAnkle
			{
				OFFSET 0.00 -0.2449 0.00
				CHANNELS 3 Zrotation Xrotation Yrotation
				End Site
				{
					OFFSET 0.1237 -0.0542 0.0051
				}
			}
		}
	}
	JOINT LeftHip
	{
		OFFSET 0.0316 -0.0424 -0.0458
		CHANNELS 3 Zrotation Xrotation Yrotation
		JOINT LeftKnee
		{
			OFFSET 0.00 -0.2438 0.00
			CHANNELS 1 Zrotation
			JOINT LeftAnkle
			{
				OFFSET 0.00 -0.2449 0.00
				CHANNELS 3 Zrotation Xrotation Yrotation
				End Site
				{
					OFFSET 0.1237 -0.0542 -0.0051
				}
			}
		}
	}
}
MOTION
Frames: 14
Frame Time: 0.02
-0 0.57926 -0 183.25078 0 -3.40419 2.27602 2.8261 -0.55984 -26.38724 3.06829 -0.30405 -15.85506 -64.20427 -77.29529 24.71086 80.08182 -19.82439 -2.3614 -24.59107 73.39523 81.48995 23.82705 -70.22419 -30.40489 1.47682 -2.63078 3.38505 5.48445 -7.89915 -1.25509 -3.0312 -7.0699 -0.98487 4.53983 -1.88577 -8.94403 6.63673 2.03739 1.29861
3e-05 0.57927 2e-05 183.24431 0 -3.40462 2.26169 2.83279 -0.5505 -26.3996 3.05665 -0.29786 -15.77829 -64.1963 -77.22085 24.71424 79.81856 -19.80309 -2.45449 -24.52391 73.40106 81.43442 23.82716 -70.22001 -30.39332 1.47736 -2.631 3.38404 5.50231 -7.89132 -1.26284 -3.02771 -7.08332 -0.98884 4.5389 -1.87709 -8.93313 6.63202 2.04991 1.29458
5e-05 0.57927 4e-05 183.23799 0 -3.40504 2.24737 2.83944 -0.54127 -26.41183 3.04513 -0.29172 -15.7017 -64.18854 -77.14669 24.71747 79.55854 -19.78181 -2.54671 -24.45666 73.40663 81.37876 23.82735 -70.21617 -30.38183 1.47793 -2.63121 3.38303 5.51999 -7.88357 -1.27051 -3.02424 -7.09668 -0.99273 4.53797 -1.86842 -8.92231 6.62735 2.06231 1.29047
8e-05 0.57927 6e-05 183.23207 0 -3.40542 2.23308 2.84611 -0.53233 -26.4237 3.03384 -0.28571 -15.62505 -64.18147 -77.07288 24.72011 79.30997 -19.76033 -2.63602 -24.38868 73.41153 81.3221 23.82742 -70.21395 -30.37071 1.4787 -2.6314 3.38199 5.53731 -7.87601 -1.27801 -3.02088 -7.10999 -0.99648 4.537 -1.85949 -8.91164 6.62275 2.07427 1.28595
0.00011 0.57927 7e-05 183.22388 0 -3.40598 2.21875 2.85279 -0.52178 -26.43753 3.02121 -0.27899 -15.54864 -64.17065 -76.9972 24.72583 79.00201 -19.73976 -2.74032 -24.32489 73.42033 81.27081 23.82757 -70.2035 -30.35786 1.4785 -2.63173 3.38109 5.55679 -7.86737 -1.28647 -3.01698 -7.12363 -1.00113 4.53619 -1.85168 -8.90004 6.61776 2.08847 1.28354
0.00014 0.57928 9e-05 183.22063 0 -3.40616 2.20446 2.85938 -0.51471 -26.4472 3.01151 -0.2738 -15.47187 -64.16782 -76.92556 24.72507 78.81911 -19.71739 -2.81313 -24.25209 73.42067 81.20816 23.82795 -70.21023 -30.34853 1.48031 -2.63177 3.3799 5.5715 -7.86104 -1.29286 -3.0142 -7.13651 -1.00379 4.53505 -1.84171 -8.89054 6.61359 2.09794 1.27672
0.00016 0.57927 0.00012 183.2304 0 -3.40532 2.19039 2.86633 -0.51692 -26.44502 3.00904 -0.27281 -15.39129 -64.18733 -76.86344 24.70538 78.99693 -19.68851 -2.79511 -24.15333 73.39857 81.11177 23.82544 -70.26846 -30.35012 1.48832 -2.63097 3.37773 5.57447 -7.86102 -1.2938 -3.01476 -7.14783 -1.00154 4.53292 -1.82342 -8.88588 6.61156 2.09386 1.2565
0.00019 0.57927 0.00015 183.24526 0 -3.40409 2.17632 2.87308 -0.52269 -26.43868 3.00964 -0.27336 -15.31078 -64.21487 -76.80561 24.67928 79.29856 -19.65804 -2.74599 -24.04562 73.36778 81.00423 23.82377 -70.34341 -30.35507 1.49826 -2.62989 3.37526 5.57239 -7.86334 -1.2926 -3.01642 -7.15826 -0.99718 4.53046 -1.80332 -8.8835 6.61038 2.08507 1.23204
0.00022 0.57927 0.00018 183.25827 0 -3.40302 2.16217 2.87951 -0.52709 -26.43448 3.00942 -0.27324 -15.23197 -64.2386 -76.74682 24.65679 79.5336 -19.6293 -2.71361 -23.94252 73.34033 80.90319 23.824 -70.40809 -30.35765 1.50689 -2.62899 3.37302 5.57166 -7.86461 -1.29219 -3.0174 -7.16878 -0.9934 4.52822 -1.78559 -8.88069 6.60887 2.07872 1.21024
0.00024 0.57927 0.00022 183.2695 0 -3.40205 2.14841 2.88768 -0.53055 -26.42928 3.00692 -0.27305 -15.14583 -64.26307 -76.68393 24.63149 79.81152 -19.59643 -2.67028 -23.83695 73.31531 80.79611 23.81469 -70.48381 -30.36369 1.51728 -2.6279 3.37043 5.57481 -7.8658 -1.29257 -3.01909 -7.18075 -0.9912 4.52572 -1.76149 -8.87534 6.60706 2.0711 1.18527
0.00027 0.57926 0.00024 183.28543 0 -3.40076 2.13379 2.89215 -0.53668 -26.42512 3.00974 -0.27331 -15.07499 -64.28781 -76.63049 24.61037 80.03038 -19.57164 -2.64231 -23.73463 73.28332 80.69897 23.82536 -70.54079 -30.36345 1.52454 -2.6271 3.36845 5.56883 -7.86773 -1.29079 -3.01961 -7.18935 -0.98525 4.52363 -1.75005 -8.87583 6.60613 2.06501 1.16598
0.0003 0.57926 0.00022 183.31491 0 -3.39891 2.11693 2.88666 -0.55042 -26.42531 3.02777 -0.2749 -15.0464 -64.31233 -76.60315 24.6038 80.04849 -19.57078 -2.66474 -23.64162 73.23271 80.63194 23.89182 -70.53949 -30.34394 1.52219 -2.62743 3.36876 5.53744 -7.87099 -1.28359 -3.01625 -7.19016 -0.96917 4.52321 -1.77544 -8.8917 6.60709 2.06442 1.16256
0.00033 0.57926 0.0002 183.3486 0 -3.39673 2.09916 2.87743 -0.56654 -26.4266 3.05083 -0.27681 -15.03322 -64.33672 -76.58499 24.60145 80.00418 -19.57793 -2.7035 -23.55252 73.17556 80.5753 23.97833 -70.51918 -30.31819 1.51671 -2.62803 3.3696 5.49728 -7.87493 -1.2743 -3.01172 -7.18742 -0.94946 4.52314 -1.81333 -8.91336 6.60895 2.06552 1.16513
0.00036 0.57926 0.00017 183.37915 0 -3.39454 2.08171 2.86972 -0.58079 -26.4271 3.07074 -0.27825 -15.01297 -64.36045 -76.56193 24.59617 79.99337 -19.58056 -2.7347 -23.46287 73.12251 80.51401 24.05493 -70.5092 -30.29605 1.51303 -2.62829 3.36987 5.46209 -7.8787 -1.26591 -3.00799 -7.18546 -0.93158 4.52263 -1.84458 -8.93253 6.61064 2.06579 1.16559
